<?xml version="1.0" encoding="UTF-8" standalone="no"?>
<svg
   viewBox="0 0 111.78668 127.38666"
   height="127.38666"
   width="111.78668"
   xml:space="preserve"
   version="1.1"
   id="svg3355"
   xmlns="http://www.w3.org/2000/svg"
   xmlns:svg="http://www.w3.org/2000/svg"><defs
   id="defs54" />
  <g
   transform="matrix(1.3333333,0,0,-1.3333333,-458.69198,935.79824)"
   id="g3363">
    <g
   transform="translate(420.064,651.1567)"
   id="g3365">
      <path
   id="path3367"
   style="fill:#6441a5;fill-opacity:1;fill-rule:evenodd;stroke:none"
   d="m 0,0 -13.652,-13.651 h -21.445 l -11.699,-11.697 v 11.697 H -64.344 V 42.893 H 0 Z m -72.146,50.692 -3.899,-15.599 v -70.19 h 17.55 v -9.751 h 9.746 l 9.752,9.751 h 15.596 L 7.795,-3.905 v 54.597 z" />
    </g>
    <path
   id="path3369"
   style="fill:#6441a5;fill-opacity:1;fill-rule:evenodd;stroke:none"
   d="m 377.167,655.053 h 7.799 v 23.401 h -7.799 z m 21.446,0 h 7.799 v 23.401 h -7.799 z" /><g
   transform="translate(468.8057,565.3643)"
   id="g3371">
    <path
   id="path3373"
   style="fill:#6441a5;fill-opacity:1;fill-rule:evenodd;stroke:none"
   d="m 0,0 -13.646,13.645 h -25.35 v 17.55 h -21.451 v -79.94 h 21.451 v 40.947 h 17.545 V -48.745 H 0 Z m -68.241,13.645 h -33.146 L -115.036,0 v -35.094 l 13.649,-13.651 h 33.146 V -27.3 h -25.35 v 19.502 h 25.35 z m -54.594,0 h -17.545 v 17.55 h -21.451 v -66.289 l 13.649,-13.651 h 25.347 V -27.3 h -17.545 v 19.502 h 17.545 z m -46.795,17.55 h -21.445 v -9.752 h 21.445 z m 0,-17.55 h -21.445 v -62.389 h 21.445 z m -29.244,0 h -21.447 V -27.3 h -7.797 v 40.945 h -21.448 V -27.3 h -7.796 v 40.945 h -21.451 v -62.39 h 66.293 l 13.646,13.651 z m -87.738,0 h -17.546 v 17.55 h -21.447 v -66.289 l 13.648,-13.651 h 25.345 V -27.3 h -17.546 v 19.502 h 17.546 z M 7.793,3.9 V -54.591 L -21.451,-74.09 h -19.496 v 9.752 L -54.595,-74.09 H -72.14 v 9.752 l -9.746,-9.752 h -31.197 l -9.752,9.752 -1.952,-9.752 h -27.292 l -11.161,9.752 -0.625,-9.752 H -194.8 l -1.094,9.752 -8.374,-9.752 h -47.25 l -9.75,3.9 v -3.9 h -25.344 l -29.247,17.552 -17.546,17.539 v 77.991 h 37.047 l 17.545,-17.549 h 79.939 v 17.549 h 66.29 V 21.443 h 17.548 v -9.746 l 9.752,9.746 h 19.493 l 17.55,17.549 h 37.044 V 21.443 h 21.448 z" />
    </g>
  </g>
</svg>
